<?xml version="1.0" encoding="UTF-8" standalone="no"?>
<svg
   xmlns:dc="http://purl.org/dc/elements/1.1/"
   xmlns:cc="http://creativecommons.org/ns#"
   xmlns:rdf="http://www.w3.org/1999/02/22-rdf-syntax-ns#"
   xmlns:svg="http://www.w3.org/2000/svg"
   xmlns="http://www.w3.org/2000/svg"
   xmlns:sodipodi="http://sodipodi.sourceforge.net/DTD/sodipodi-0.dtd"
   xmlns:inkscape="http://www.inkscape.org/namespaces/inkscape"
   height="800"
   width="1200"
   viewBox="-11.493675 -16.3118 99.61185 97.8708"
   version="1.1"
   id="svg6"
   sodipodi:docname="linkedin.svg"
   inkscape:version="1.0.2 (1.0.2+r75+1)">
  <metadata
     id="metadata12">
    <rdf:RDF>
      <cc:Work
         rdf:about="">
        <dc:format>image/svg+xml</dc:format>
        <dc:type
           rdf:resource="http://purl.org/dc/dcmitype/StillImage" />
      </cc:Work>
    </rdf:RDF>
  </metadata>
  <defs
     id="defs10" />
  <sodipodi:namedview
     pagecolor="#ffffff"
     bordercolor="#666666"
     borderopacity="1"
     objecttolerance="10"
     gridtolerance="10"
     guidetolerance="10"
     inkscape:pageopacity="0"
     inkscape:pageshadow="2"
     inkscape:window-width="1920"
     inkscape:window-height="1013"
     id="namedview8"
     showgrid="false"
     inkscape:zoom="0.96"
     inkscape:cx="607.76699"
     inkscape:cy="469.4859"
     inkscape:window-x="0"
     inkscape:window-y="0"
     inkscape:window-maximized="1"
     inkscape:current-layer="svg6" />
  <path
     fill="#0a66c2"
     d="m 55.205,55.2044 h -9.6 v -15.034 c 0,-3.585 -0.064,-8.2 -4.993,-8.2 -5,0 -5.765,3.906 -5.765,7.939 v 15.294 h -9.6 v -30.916 h 9.216 v 4.225 h 0.129 c 1.879195,-3.213047 5.373325,-5.132071 9.093,-4.994 9.73,0 11.524,6.4 11.524,14.726 z M 14.415,20.0614 C 9.451424,20.062291 6.9654785,14.061998 10.474201,10.552015 13.982924,7.0420327 19.984109,9.525824 19.985,14.4894 c 5.52e-4,3.076778 -2.493222,5.571448 -5.57,5.572 m 4.8,35.143 h -9.61 v -30.917 h 9.61 z m 40.776,-55.2 H 4.781 C 2.1716614,-0.02504639 0.03184555,2.0650895 0,4.6744 v 55.439 c 0.03075524,2.610568 2.1703989,4.702773 4.781,4.675 h 55.21 c 2.615766,0.03281 4.763788,-2.059279 4.8,-4.675 V 4.6704 c -0.0373,-2.6144651 -2.185496,-4.70448162 -4.8,-4.67"
     id="path2"
     sodipodi:nodetypes="ccsssccccccccccssccccccccccccccc" />
</svg>
